<svg aria-hidden="true" style="position: absolute; width: 0; height: 0; overflow: hidden;" version="1.1" xmlns="http://www.w3.org/2000/svg" xmlns:xlink="http://www.w3.org/1999/xlink">
<defs>
<symbol id="icon-site_logo" viewBox="0 0 148 32">
<title>site_logo</title>
<path d="M12.591 0.464c-1.33 1.392-0.572 3.914 1.191 3.914 0.511 0 0.712-0.093 1.129-0.572 0.433-0.495 0.511-0.696 0.511-1.47 0-1.47-0.665-2.336-1.795-2.336-0.433 0-0.712 0.124-1.037 0.464z"></path>
<path d="M8.151 0.975c-0.774 0.309-1.114 1.949-0.619 2.924 0.294 0.572 1.006 1.129 1.408 1.129 0.557 0 1.222-0.449 1.439-0.959 0.124-0.294 0.17-0.851 0.124-1.346-0.062-0.696-0.17-0.913-0.665-1.377-0.588-0.541-1.021-0.634-1.686-0.371z"></path>
<path d="M18.624 1.145c-2.119 1.129-2.584 4.703-0.789 6.204 1.067 0.897 2.491 0.743 3.512-0.387 0.804-0.897 1.052-1.547 1.052-2.816 0-2.491-1.887-3.991-3.775-3.001z"></path>
<path d="M3.541 3.403c-1.098 1.098-0.201 3.419 1.33 3.419s1.949-2.367 0.603-3.481c-0.665-0.572-1.33-0.541-1.934 0.062z"></path>
<path d="M0.478 6.652c-0.696 0.696-0.634 1.609 0.17 2.522 0.418 0.464 0.619 0.572 1.129 0.572 0.773 0 1.3-0.572 1.284-1.439 0-1.454-1.702-2.537-2.583-1.655z"></path>
<path d="M56.031 6.761c-0.48 0.634-0.464 1.733 0.062 2.259 0.557 0.557 1.114 0.511 1.624-0.093 0.835-1.006 0.356-2.599-0.804-2.599-0.387 0-0.634 0.124-0.882 0.433z"></path>
<path d="M51.869 7.070c-1.114 0.557-1.47 2.29-0.727 3.605 0.603 1.083 1.686 1.454 2.614 0.913 1.516-0.897 1.191-3.821-0.495-4.502-0.789-0.309-0.773-0.309-1.392-0.015z"></path>
<path d="M59.589 7.302c-0.882 0.866-0.511 2.491 0.572 2.491 1.098 0 1.655-1.733 0.82-2.568-0.511-0.526-0.82-0.511-1.392 0.077z"></path>
<path d="M9.141 7.859c-2.29 0.557-4.223 2.104-5.26 4.223-0.82 1.64-1.129 3.11-1.129 5.26-0.015 6.018 3.372 9.777 8.849 9.777 4.811 0.015 8.323-3.342 8.833-8.431 0.263-2.584-0.325-5.353-1.516-7.24-1.114-1.733-3.264-3.218-5.26-3.635-1.114-0.232-3.465-0.201-4.517 0.046z"></path>
<path d="M62.729 8.679c-0.588 0.495-0.743 1.129-0.449 1.841 0.186 0.449 0.309 0.526 0.773 0.526 0.959 0 1.578-1.067 1.176-2.042-0.124-0.309-0.309-0.557-0.387-0.557-0.093 0-0.263-0.046-0.387-0.093-0.139-0.046-0.464 0.093-0.727 0.325z"></path>
<path d="M64.849 11.108c-0.325 0.278-0.449 0.526-0.449 0.959 0 1.067 0.804 1.439 1.609 0.727 0.588-0.526 0.696-1.3 0.263-1.733-0.449-0.449-0.866-0.433-1.423 0.046z"></path>
<path d="M29.19 12.655c-0.789 0.263-1.609 0.851-2.104 1.532l-0.464 0.65v-1.841h-3.403v18.997h3.574v-6.9l0.418 0.526c0.696 0.897 1.717 1.392 3.063 1.47 3.481 0.232 5.569-1.872 6.111-6.142 0.48-3.666-0.897-6.884-3.403-7.998-0.835-0.371-3.032-0.541-3.79-0.294zM30.505 15.919c1.361 0.387 2.181 1.918 2.166 4.007 0 1.454-0.387 2.614-1.052 3.264-0.944 0.897-1.965 1.083-3.14 0.541-0.804-0.371-1.253-0.944-1.593-2.119-0.696-2.321 0.031-4.842 1.578-5.538 0.773-0.356 1.253-0.387 2.042-0.155z"></path>
<path d="M56 12.747c-0.402 0.108-1.114 0.402-1.578 0.665-4.548 2.46-4.486 10.458 0.093 12.856 1.33 0.696 2.429 0.913 4.084 0.82 2.259-0.139 3.806-0.944 5.074-2.63 1.609-2.119 1.856-5.879 0.541-8.478-0.804-1.562-2.522-2.893-4.301-3.295-0.975-0.232-2.986-0.201-3.914 0.062z"></path>
<path d="M87.513 12.747c-0.402 0.108-1.114 0.402-1.578 0.665-4.548 2.46-4.486 10.458 0.093 12.856 1.33 0.696 2.429 0.913 4.084 0.82 2.259-0.139 3.806-0.944 5.074-2.63 1.609-2.119 1.856-5.879 0.541-8.478-0.804-1.562-2.522-2.893-4.301-3.295-0.975-0.232-2.986-0.201-3.914 0.062zM90.653 15.764c0.712 0.201 1.64 1.176 1.934 2.042 0.309 0.944 0.278 3.249-0.077 4.161-0.387 1.037-1.33 1.856-2.274 1.996-1.609 0.248-2.692-0.309-3.419-1.764-0.418-0.835-0.464-1.129-0.464-2.351 0-2.197 0.696-3.512 2.104-4.022 0.758-0.263 1.392-0.278 2.197-0.062z"></path>
<path d="M139.709 12.747c-1.036 0.294-1.377 0.464-2.166 1.083-0.681 0.541-1.593 2.212-1.593 2.924v0.464h3.512l0.155-0.511c0.248-0.835 0.882-1.191 2.166-1.191 0.634 0 1.269 0.093 1.516 0.232 0.572 0.294 0.851 1.114 0.588 1.686-0.232 0.511-0.603 0.619-3.311 0.99-2.351 0.325-3.45 0.789-4.161 1.764-0.665 0.913-1.021 2.228-0.882 3.249 0.294 2.29 1.609 3.496 3.914 3.651 1.609 0.108 2.738-0.248 3.775-1.176l0.804-0.727 0.371 1.454h2.027c1.748 0 2.027-0.031 2.027-0.263 0-0.139-0.17-0.387-0.371-0.541-0.356-0.294-0.356-0.356-0.449-5.306-0.062-3.543-0.139-5.167-0.294-5.507-0.34-0.804-1.33-1.686-2.29-2.042-1.191-0.464-4.084-0.588-5.337-0.232zM144.025 21.179c-0.062 0.665-0.217 1.423-0.34 1.686-0.789 1.516-3.109 2.15-4.131 1.129-0.294-0.294-0.387-0.572-0.387-1.129 0-1.377 0.402-1.702 2.769-2.228 0.82-0.17 1.609-0.387 1.764-0.48s0.309-0.17 0.34-0.17c0.046 0 0.031 0.526-0.015 1.191z"></path>
<path d="M37.838 14.294v1.454h4.223v10.891h3.574v-10.891h4.053v-2.924h-11.85v1.47z"></path>
<path d="M67.726 19.817v6.822h3.728v-5.848h5.043v5.848h3.728v-13.645h-3.728v4.873h-5.043v-4.873h-3.728v6.822z"></path>
<path d="M100.214 16.151l2.274 3.171-2.444 3.651-2.444 3.666h4.239l1.903-2.877c1.408-2.15 1.996-2.908 2.274-2.939l0.371-0.046v5.863h3.574v-5.863l0.356 0.046c0.263 0.031 0.835 0.804 2.212 2.939l1.872 2.877h2.166c1.702 0 2.15-0.046 2.058-0.201-0.062-0.108-1.129-1.717-2.367-3.574s-2.243-3.45-2.243-3.543c0-0.093 0.99-1.516 2.197-3.156 1.207-1.655 2.197-3.048 2.197-3.094s-0.913-0.077-2.011-0.077h-1.996l-1.841 2.676c-1.501 2.166-1.934 2.676-2.228 2.676h-0.371v-5.353h-3.574v2.692c0 2.661-0.015 2.692-0.356 2.645-0.248-0.046-0.897-0.851-2.15-2.692l-1.81-2.645h-4.131l2.274 3.156z"></path>
<path d="M120.835 19.817v6.822h3.574v-4.316l0.696-0.696c0.835-0.82 0.526-1.067 2.97 2.46l1.764 2.553h4.656l-0.371-0.526c-0.201-0.294-1.532-2.088-2.939-4.007l-2.583-3.481 5.631-5.631h-4.703l-2.568 2.553-2.553 2.568v-5.121h-3.574v6.822z"></path>
</symbol>
<symbol id="icon-title_divider" viewBox="0 0 305 32">
<title>title_divider</title>
<path d="M99.251 10.811c-16.040 14.71-13.558 14.622-28.535 1.152-15.685-14.002-13.204-14.002-27.737-0.532-15.065 14.002-14.179 13.913-26.674 2.215-15.685-14.533-16.306-14.888-16.306-9.659 0 3.19 3.722 7.71 14.179 17.192 14.267 12.85 14.267 12.85 28.357 0.089 14.179-12.761 14.179-12.761 28.18-0.177s14.002 12.584 27.471 0c15.419-14.445 12.85-14.622 30.75 2.659 11.077 10.723 11.077 10.723 24.281-2.393 15.065-14.976 12.406-15.154 30.573 2.304 10.989 10.545 10.989 10.545 25.345-2.393s14.356-12.938 22.686-5.14c21.711 20.471 18.344 19.85 32.788 5.494 15.508-15.419 13.558-15.419 28.18-0.886 11.875 11.786 12.052 11.875 12.052 6.646 0-4.785-21.268-27.383-25.699-27.383-0.709 0-7.267 5.583-14.622 12.318-13.381 12.318-13.381 12.318-26.762 0-7.355-6.824-14.001-12.141-14.71-11.875-0.798 0.266-7.001 5.494-13.824 11.609-14.799 13.293-14.799 13.293-30.13-2.215-11.432-11.52-11.432-11.52-24.192 0.798-15.508 15.154-14.267 15.154-29.687 0.177-12.672-12.229-12.672-12.229-25.965 0z"></path>
</symbol>
<symbol id="icon-viber" viewBox="0 0 32 32">
<title>viber</title>
<path d="M336.627-337.16c-22.093-20.32-111.307-85.093-310.053-85.973 0 0-234.387-14.133-348.627 90.68-63.6 63.6-85.987 156.653-88.333 272.067-2.36 115.427-5.427 331.667 203.053 390.32l0.2 0.053-0.133 89.467s-1.307 36.24 22.52 43.627c28.853 8.96 45.787-18.587 73.333-48.253 15.133-16.293 36-40.227 51.733-58.52 142.587 11.947 252.24-15.427 264.68-19.467 28.8-9.373 191.693-30.227 218.187-246.467 27.333-222.947-13.253-363.933-86.56-427.533zM360.773 74.267c-22.4 180.56-154.467 191.96-178.827 199.773-10.36 3.333-106.693 27.293-227.787 19.387 0 0-90.24 108.853-118.4 137.173-4.413 4.427-9.587 6.213-13.040 5.373-4.853-1.2-6.2-6.933-6.133-15.333 0.080-12 0.76-148.693 0.76-148.693-0.133-0.040-0.093-0.027-0.027 0-176.307-49-166.027-233.067-164.040-329.453 2-96.373 20.107-175.347 73.907-228.453 96.64-87.533 295.72-74.453 295.72-74.453 168.107 0.733 248.68 51.36 267.36 68.32 62.013 53.107 93.627 180.187 70.507 366.347z"></path>
<path d="M27.747 3.12c-0.8-0.733-4-3.067-11.16-3.093 0 0-8.44-0.507-12.56 3.267-2.293 2.28-3.093 5.64-3.187 9.8-0.080 4.147-0.173 11.933 7.333 14.053v3.227s-0.053 1.293 0.8 1.56c1.053 0.333 1.653-0.667 2.653-1.733l1.867-2.107c5.133 0.427 9.067-0.56 9.52-0.707 1.040-0.333 6.907-1.080 7.867-8.867 0.987-8.040-0.48-13.107-3.12-15.4zM28.627 17.933c-0.8 6.507-5.56 6.92-6.44 7.2-0.373 0.12-3.84 0.973-8.2 0.693 0 0-3.253 3.92-4.267 4.933-0.16 0.173-0.347 0.227-0.467 0.2-0.173-0.040-0.227-0.253-0.213-0.547l0.027-5.36c-6.36-1.76-5.987-8.4-5.92-11.867 0.080-3.467 0.733-6.307 2.667-8.227 3.48-3.147 10.653-2.667 10.653-2.667 6.053 0.013 8.947 1.84 9.627 2.453 2.227 1.907 3.373 6.48 2.533 13.2z"></path>
<path d="M19.533 13.307c-0 0-0 0-0 0-0.216 0-0.392-0.172-0.4-0.386l-0-0.001c-0.080-1.373-0.72-2.040-2.040-2.107-0.216-0.011-0.387-0.189-0.387-0.407 0-0.225 0.182-0.407 0.407-0.407 0.007 0 0.014 0 0.021 0.001l-0.001-0c1.733 0.093 2.707 1.093 2.8 2.88 0.001 0.008 0.001 0.017 0.001 0.027 0 0.217-0.172 0.393-0.387 0.4l-0.001 0h-0.013z"></path>
<path d="M21.6 14c-0.221 0-0.4-0.179-0.4-0.4v0c0.006-0.087 0.009-0.19 0.009-0.292 0-1.208-0.459-2.309-1.213-3.138l0.003 0.004c-0.898-0.926-2.145-1.508-3.529-1.533l-0.005-0c-0.21-0.014-0.374-0.188-0.374-0.4 0-0.221 0.179-0.401 0.401-0.401 0.009 0 0.019 0 0.028 0.001l-0.001-0c1.733 0.12 3.093 0.72 4.067 1.787s1.467 2.4 1.427 3.987c0 0.221-0.179 0.4-0.4 0.4v0z"></path>
<path d="M23.733 14.84c-0.221 0-0.4-0.179-0.4-0.4v0c-0.027-2.48-0.733-4.373-2.187-5.787-1.35-1.312-3.195-2.121-5.23-2.121-0.051 0-0.101 0-0.151 0.002l0.008-0c-0.221 0-0.4-0.179-0.4-0.4v0c0-0.227 0.187-0.4 0.4-0.4 2.36 0 4.36 0.8 5.947 2.347 1.498 1.546 2.421 3.656 2.421 5.982 0 0.128-0.003 0.256-0.008 0.383l0.001-0.018c0 0.221-0.179 0.4-0.4 0.4v0zM17.2 18.32s0.56 0.053 0.867-0.32l0.6-0.76c0.28-0.373 0.973-0.6 1.653-0.227 1.084 0.633 2.022 1.311 2.887 2.071l-0.020-0.018c0.44 0.373 0.547 0.92 0.24 1.493v0.013c-0.307 0.547-0.72 1.067-1.24 1.533-0.39 0.354-0.898 0.584-1.458 0.626l-0.008 0c-0.173 0-0.347-0.027-0.533-0.080v-0.013c-0.64-0.187-1.707-0.64-3.467-1.6-1.612-0.902-3.004-1.932-4.249-3.115l0.009 0.008-0.080-0.080-0.053-0.040-0.040-0.053c-1.172-1.231-2.198-2.619-3.040-4.123l-0.053-0.104c-0.602-0.991-1.142-2.136-1.561-3.338l-0.039-0.128-0.027-0.013c-0.051-0.152-0.080-0.327-0.080-0.509 0-0.074 0.005-0.148 0.014-0.22l-0.001 0.008c0.053-0.413 0.253-0.84 0.613-1.267 0.48-0.533 0.987-0.933 1.533-1.253h0.013c0.573-0.307 1.12-0.2 1.493 0.24 0.743 0.844 1.422 1.782 2.007 2.782l0.046 0.085c0.387 0.68 0.133 1.373-0.227 1.667l-0.747 0.6c-0.387 0.293-0.333 0.867-0.333 0.867s1.107 4.213 5.267 5.28z"></path>
</symbol>
<symbol id="icon-quote-left" viewBox="0 0 26 28">
<title>quote-left</title>
<path d="M12 15v6c0 1.656-1.344 3-3 3h-6c-1.656 0-3-1.344-3-3v-11c0-4.406 3.594-8 8-8h1c0.547 0 1 0.453 1 1v2c0 0.547-0.453 1-1 1h-1c-2.203 0-4 1.797-4 4v0.5c0 0.828 0.672 1.5 1.5 1.5h3.5c1.656 0 3 1.344 3 3zM26 15v6c0 1.656-1.344 3-3 3h-6c-1.656 0-3-1.344-3-3v-11c0-4.406 3.594-8 8-8h1c0.547 0 1 0.453 1 1v2c0 0.547-0.453 1-1 1h-1c-2.203 0-4 1.797-4 4v0.5c0 0.828 0.672 1.5 1.5 1.5h3.5c1.656 0 3 1.344 3 3z"></path>
</symbol>
<symbol id="icon-quote-right" viewBox="0 0 26 28">
<title>quote-right</title>
<path d="M12 5v11c0 4.406-3.594 8-8 8h-1c-0.547 0-1-0.453-1-1v-2c0-0.547 0.453-1 1-1h1c2.203 0 4-1.797 4-4v-0.5c0-0.828-0.672-1.5-1.5-1.5h-3.5c-1.656 0-3-1.344-3-3v-6c0-1.656 1.344-3 3-3h6c1.656 0 3 1.344 3 3zM26 5v11c0 4.406-3.594 8-8 8h-1c-0.547 0-1-0.453-1-1v-2c0-0.547 0.453-1 1-1h1c2.203 0 4-1.797 4-4v-0.5c0-0.828-0.672-1.5-1.5-1.5h-3.5c-1.656 0-3-1.344-3-3v-6c0-1.656 1.344-3 3-3h6c1.656 0 3 1.344 3 3z"></path>
</symbol>
<symbol id="icon-paper-plane" viewBox="0 0 28 28">
<title>paper-plane</title>
<path d="M27.563 0.172c0.328 0.234 0.484 0.609 0.422 1l-4 24c-0.047 0.297-0.234 0.547-0.5 0.703-0.141 0.078-0.313 0.125-0.484 0.125-0.125 0-0.25-0.031-0.375-0.078l-7.078-2.891-3.781 4.609c-0.187 0.234-0.469 0.359-0.766 0.359-0.109 0-0.234-0.016-0.344-0.063-0.391-0.141-0.656-0.516-0.656-0.938v-5.453l13.5-16.547-16.703 14.453-6.172-2.531c-0.359-0.141-0.594-0.469-0.625-0.859-0.016-0.375 0.172-0.734 0.5-0.922l26-15c0.156-0.094 0.328-0.141 0.5-0.141 0.203 0 0.406 0.063 0.562 0.172z"></path>
</symbol>
<symbol id="icon-archive" viewBox="0 0 28 28">
<title>archive</title>
<path d="M17 13c0-0.547-0.453-1-1-1h-4c-0.547 0-1 0.453-1 1s0.453 1 1 1h4c0.547 0 1-0.453 1-1zM26 10v15c0 0.547-0.453 1-1 1h-22c-0.547 0-1-0.453-1-1v-15c0-0.547 0.453-1 1-1h22c0.547 0 1 0.453 1 1zM27 3v4c0 0.547-0.453 1-1 1h-24c-0.547 0-1-0.453-1-1v-4c0-0.547 0.453-1 1-1h24c0.547 0 1 0.453 1 1z"></path>
</symbol>
<symbol id="icon-credit-card" viewBox="0 0 30 28">
<title>credit-card</title>
<path d="M27.5 2c1.375 0 2.5 1.125 2.5 2.5v19c0 1.375-1.125 2.5-2.5 2.5h-25c-1.375 0-2.5-1.125-2.5-2.5v-19c0-1.375 1.125-2.5 2.5-2.5h25zM2.5 4c-0.266 0-0.5 0.234-0.5 0.5v3.5h26v-3.5c0-0.266-0.234-0.5-0.5-0.5h-25zM27.5 24c0.266 0 0.5-0.234 0.5-0.5v-9.5h-26v9.5c0 0.266 0.234 0.5 0.5 0.5h25zM4 22v-2h4v2h-4zM10 22v-2h6v2h-6z"></path>
</symbol>
<symbol id="icon-truck" viewBox="0 0 29 28">
<title>truck</title>
<path d="M10 22c0-1.094-0.906-2-2-2s-2 0.906-2 2 0.906 2 2 2 2-0.906 2-2zM4 14h6v-4h-2.469c-0.063 0-0.297 0.094-0.344 0.141l-3.047 3.047c-0.047 0.047-0.141 0.281-0.141 0.344v0.469zM24 22c0-1.094-0.906-2-2-2s-2 0.906-2 2 0.906 2 2 2 2-0.906 2-2zM28 5v16c0 1.156-1.219 1-2 1 0 2.203-1.797 4-4 4s-4-1.797-4-4h-6c0 2.203-1.797 4-4 4s-4-1.797-4-4h-1c-0.781 0-2 0.156-2-1 0-0.547 0.453-1 1-1v-5c0-1.109-0.156-2.344 0.703-3.203l3.094-3.094c0.391-0.391 1.141-0.703 1.703-0.703h2.5v-3c0-0.547 0.453-1 1-1h16c0.547 0 1 0.453 1 1z"></path>
</symbol>
<symbol id="icon-map-marker" viewBox="0 0 16 28">
<title>map-marker</title>
<path d="M12 10c0-2.203-1.797-4-4-4s-4 1.797-4 4 1.797 4 4 4 4-1.797 4-4zM16 10c0 0.953-0.109 1.937-0.516 2.797l-5.688 12.094c-0.328 0.688-1.047 1.109-1.797 1.109s-1.469-0.422-1.781-1.109l-5.703-12.094c-0.406-0.859-0.516-1.844-0.516-2.797 0-4.422 3.578-8 8-8s8 3.578 8 8z"></path>
</symbol>
<symbol id="icon-youtube-play" viewBox="0 0 28 28">
<title>youtube-play</title>
<path d="M11.109 17.625l7.562-3.906-7.562-3.953v7.859zM14 4.156c5.891 0 9.797 0.281 9.797 0.281 0.547 0.063 1.75 0.063 2.812 1.188 0 0 0.859 0.844 1.109 2.781 0.297 2.266 0.281 4.531 0.281 4.531v2.125s0.016 2.266-0.281 4.531c-0.25 1.922-1.109 2.781-1.109 2.781-1.062 1.109-2.266 1.109-2.812 1.172 0 0-3.906 0.297-9.797 0.297v0c-7.281-0.063-9.516-0.281-9.516-0.281-0.625-0.109-2.031-0.078-3.094-1.188 0 0-0.859-0.859-1.109-2.781-0.297-2.266-0.281-4.531-0.281-4.531v-2.125s-0.016-2.266 0.281-4.531c0.25-1.937 1.109-2.781 1.109-2.781 1.062-1.125 2.266-1.125 2.812-1.188 0 0 3.906-0.281 9.797-0.281v0z"></path>
</symbol>
<symbol id="icon-twitter" viewBox="0 0 26 28">
<title>twitter</title>
<path d="M25.312 6.375c-0.688 1-1.547 1.891-2.531 2.609 0.016 0.219 0.016 0.438 0.016 0.656 0 6.672-5.078 14.359-14.359 14.359-2.859 0-5.516-0.828-7.75-2.266 0.406 0.047 0.797 0.063 1.219 0.063 2.359 0 4.531-0.797 6.266-2.156-2.219-0.047-4.078-1.5-4.719-3.5 0.313 0.047 0.625 0.078 0.953 0.078 0.453 0 0.906-0.063 1.328-0.172-2.312-0.469-4.047-2.5-4.047-4.953v-0.063c0.672 0.375 1.453 0.609 2.281 0.641-1.359-0.906-2.25-2.453-2.25-4.203 0-0.938 0.25-1.797 0.688-2.547 2.484 3.062 6.219 5.063 10.406 5.281-0.078-0.375-0.125-0.766-0.125-1.156 0-2.781 2.25-5.047 5.047-5.047 1.453 0 2.766 0.609 3.687 1.594 1.141-0.219 2.234-0.641 3.203-1.219-0.375 1.172-1.172 2.156-2.219 2.781 1.016-0.109 2-0.391 2.906-0.781z"></path>
</symbol>
<symbol id="icon-facebook" viewBox="0 0 16 28">
<title>facebook</title>
<path d="M14.984 0.187v4.125h-2.453c-1.922 0-2.281 0.922-2.281 2.25v2.953h4.578l-0.609 4.625h-3.969v11.859h-4.781v-11.859h-3.984v-4.625h3.984v-3.406c0-3.953 2.422-6.109 5.953-6.109 1.687 0 3.141 0.125 3.563 0.187z"></path>
</symbol>
<symbol id="icon-linkedin" viewBox="0 0 24 28">
<title>linkedin</title>
<path d="M5.453 9.766v15.484h-5.156v-15.484h5.156zM5.781 4.984c0.016 1.484-1.109 2.672-2.906 2.672v0h-0.031c-1.734 0-2.844-1.188-2.844-2.672 0-1.516 1.156-2.672 2.906-2.672 1.766 0 2.859 1.156 2.875 2.672zM24 16.375v8.875h-5.141v-8.281c0-2.078-0.75-3.5-2.609-3.5-1.422 0-2.266 0.953-2.641 1.875-0.125 0.344-0.172 0.797-0.172 1.266v8.641h-5.141c0.063-14.031 0-15.484 0-15.484h5.141v2.25h-0.031c0.672-1.062 1.891-2.609 4.672-2.609 3.391 0 5.922 2.219 5.922 6.969z"></path>
</symbol>
<symbol id="icon-instagram" viewBox="0 0 24 28">
<title>instagram</title>
<path d="M16 14c0-2.203-1.797-4-4-4s-4 1.797-4 4 1.797 4 4 4 4-1.797 4-4zM18.156 14c0 3.406-2.75 6.156-6.156 6.156s-6.156-2.75-6.156-6.156 2.75-6.156 6.156-6.156 6.156 2.75 6.156 6.156zM19.844 7.594c0 0.797-0.641 1.437-1.437 1.437s-1.437-0.641-1.437-1.437 0.641-1.437 1.437-1.437 1.437 0.641 1.437 1.437zM12 4.156c-1.75 0-5.5-0.141-7.078 0.484-0.547 0.219-0.953 0.484-1.375 0.906s-0.688 0.828-0.906 1.375c-0.625 1.578-0.484 5.328-0.484 7.078s-0.141 5.5 0.484 7.078c0.219 0.547 0.484 0.953 0.906 1.375s0.828 0.688 1.375 0.906c1.578 0.625 5.328 0.484 7.078 0.484s5.5 0.141 7.078-0.484c0.547-0.219 0.953-0.484 1.375-0.906s0.688-0.828 0.906-1.375c0.625-1.578 0.484-5.328 0.484-7.078s0.141-5.5-0.484-7.078c-0.219-0.547-0.484-0.953-0.906-1.375s-0.828-0.688-1.375-0.906c-1.578-0.625-5.328-0.484-7.078-0.484zM24 14c0 1.656 0.016 3.297-0.078 4.953-0.094 1.922-0.531 3.625-1.937 5.031s-3.109 1.844-5.031 1.937c-1.656 0.094-3.297 0.078-4.953 0.078s-3.297 0.016-4.953-0.078c-1.922-0.094-3.625-0.531-5.031-1.937s-1.844-3.109-1.937-5.031c-0.094-1.656-0.078-3.297-0.078-4.953s-0.016-3.297 0.078-4.953c0.094-1.922 0.531-3.625 1.937-5.031s3.109-1.844 5.031-1.937c1.656-0.094 3.297-0.078 4.953-0.078s3.297-0.016 4.953 0.078c1.922 0.094 3.625 0.531 5.031 1.937s1.844 3.109 1.937 5.031c0.094 1.656 0.078 3.297 0.078 4.953z"></path>
</symbol>
<symbol id="icon-skype" viewBox="0 0 24 28">
<title>skype</title>
<path d="M18.328 16.609c0-2.719-2.641-3.656-4.859-4.156l-1.625-0.375c-1.188-0.281-2.078-0.484-2.078-1.391 0-0.828 0.875-1.203 2.25-1.203 2.453 0 2.5 1.797 4.016 1.797 1.016 0 1.625-0.797 1.625-1.703 0-1.797-2.984-2.969-5.938-2.969-2.703 0-5.844 1.172-5.844 4.344 0 2.625 1.75 3.563 4.031 4.109l2.281 0.562c1.391 0.344 2.25 0.5 2.25 1.5 0 0.797-0.891 1.406-2.266 1.406-2.891 0-3.047-2.406-4.719-2.406-1.094 0-1.578 0.781-1.578 1.641 0 1.922 2.938 3.484 6.453 3.484 2.938 0 6-1.469 6-4.641zM24 20c0 3.313-2.688 6-6 6-1.375 0-2.641-0.469-3.656-1.25-0.75 0.156-1.547 0.25-2.344 0.25-6.078 0-11-4.922-11-11 0-0.797 0.094-1.594 0.25-2.344-0.781-1.016-1.25-2.281-1.25-3.656 0-3.313 2.688-6 6-6 1.375 0 2.641 0.469 3.656 1.25 0.75-0.156 1.547-0.25 2.344-0.25 6.078 0 11 4.922 11 11 0 0.797-0.094 1.594-0.25 2.344 0.781 1.016 1.25 2.281 1.25 3.656z"></path>
</symbol>
<symbol id="icon-vk" viewBox="0 0 31 28">
<title>vk</title>
<path d="M29.953 8.125c0.234 0.641-0.5 2.141-2.344 4.594-3.031 4.031-3.359 3.656-0.859 5.984 2.406 2.234 2.906 3.313 2.984 3.453 0 0 1 1.75-1.109 1.766l-4 0.063c-0.859 0.172-2-0.609-2-0.609-1.5-1.031-2.906-3.703-4-3.359 0 0-1.125 0.359-1.094 2.766 0.016 0.516-0.234 0.797-0.234 0.797s-0.281 0.297-0.828 0.344h-1.797c-3.953 0.25-7.438-3.391-7.438-3.391s-3.813-3.938-7.156-11.797c-0.219-0.516 0.016-0.766 0.016-0.766s0.234-0.297 0.891-0.297l4.281-0.031c0.406 0.063 0.688 0.281 0.688 0.281s0.25 0.172 0.375 0.5c0.703 1.75 1.609 3.344 1.609 3.344 1.563 3.219 2.625 3.766 3.234 3.437 0 0 0.797-0.484 0.625-4.375-0.063-1.406-0.453-2.047-0.453-2.047-0.359-0.484-1.031-0.625-1.328-0.672-0.234-0.031 0.156-0.594 0.672-0.844 0.766-0.375 2.125-0.391 3.734-0.375 1.266 0.016 1.625 0.094 2.109 0.203 1.484 0.359 0.984 1.734 0.984 5.047 0 1.062-0.203 2.547 0.562 3.031 0.328 0.219 1.141 0.031 3.141-3.375 0 0 0.938-1.625 1.672-3.516 0.125-0.344 0.391-0.484 0.391-0.484s0.25-0.141 0.594-0.094l4.5-0.031c1.359-0.172 1.578 0.453 1.578 0.453z"></path>
</symbol>
<symbol id="icon-whatsapp" viewBox="0 0 24 28">
<title>whatsapp</title>
<path d="M15.391 15.219c0.266 0 2.812 1.328 2.922 1.516 0.031 0.078 0.031 0.172 0.031 0.234 0 0.391-0.125 0.828-0.266 1.188-0.359 0.875-1.813 1.437-2.703 1.437-0.75 0-2.297-0.656-2.969-0.969-2.234-1.016-3.625-2.75-4.969-4.734-0.594-0.875-1.125-1.953-1.109-3.031v-0.125c0.031-1.031 0.406-1.766 1.156-2.469 0.234-0.219 0.484-0.344 0.812-0.344 0.187 0 0.375 0.047 0.578 0.047 0.422 0 0.5 0.125 0.656 0.531 0.109 0.266 0.906 2.391 0.906 2.547 0 0.594-1.078 1.266-1.078 1.625 0 0.078 0.031 0.156 0.078 0.234 0.344 0.734 1 1.578 1.594 2.141 0.719 0.688 1.484 1.141 2.359 1.578 0.109 0.063 0.219 0.109 0.344 0.109 0.469 0 1.25-1.516 1.656-1.516zM12.219 23.5c5.406 0 9.812-4.406 9.812-9.812s-4.406-9.812-9.812-9.812-9.812 4.406-9.812 9.812c0 2.063 0.656 4.078 1.875 5.75l-1.234 3.641 3.781-1.203c1.594 1.047 3.484 1.625 5.391 1.625zM12.219 1.906c6.5 0 11.781 5.281 11.781 11.781s-5.281 11.781-11.781 11.781c-1.984 0-3.953-0.5-5.703-1.469l-6.516 2.094 2.125-6.328c-1.109-1.828-1.687-3.938-1.687-6.078 0-6.5 5.281-11.781 11.781-11.781z"></path>
</symbol>
<symbol id="icon-odnoklassniki" viewBox="0 0 20 28">
<title>odnoklassniki</title>
<path d="M10 14.172c-3.906 0-7.094-3.172-7.094-7.078 0-3.922 3.187-7.094 7.094-7.094s7.094 3.172 7.094 7.094c0 3.906-3.187 7.078-7.094 7.078zM10 3.594c-1.922 0-3.484 1.563-3.484 3.5 0 1.922 1.563 3.484 3.484 3.484s3.484-1.563 3.484-3.484c0-1.937-1.563-3.5-3.484-3.5zM18.172 15.031c0.688 1.406-0.094 2.078-1.875 3.234-1.5 0.953-3.563 1.328-4.922 1.469l1.141 1.125 4.172 4.172c0.625 0.641 0.625 1.672 0 2.297l-0.187 0.203c-0.641 0.625-1.672 0.625-2.312 0-1.047-1.062-2.578-2.594-4.172-4.188l-4.172 4.188c-0.641 0.625-1.672 0.625-2.297 0l-0.187-0.203c-0.641-0.625-0.641-1.656 0-2.297 1.062-1.062 2.578-2.594 4.172-4.172l1.125-1.125c-1.344-0.141-3.437-0.5-4.953-1.469-1.781-1.156-2.562-1.828-1.875-3.234 0.406-0.797 1.516-1.469 2.984-0.313 0 0 1.984 1.578 5.187 1.578s5.187-1.578 5.187-1.578c1.469-1.156 2.578-0.484 2.984 0.313z"></path>
</symbol>
<symbol id="icon-telegram" viewBox="0 0 28 28">
<title>telegram</title>
<path d="M18.578 20.422l2.297-10.828c0.203-0.953-0.344-1.328-0.969-1.094l-13.5 5.203c-0.922 0.359-0.906 0.875-0.156 1.109l3.453 1.078 8.016-5.047c0.375-0.25 0.719-0.109 0.438 0.141l-6.484 5.859-0.25 3.563c0.359 0 0.516-0.156 0.703-0.344l1.687-1.625 3.5 2.578c0.641 0.359 1.094 0.172 1.266-0.594zM28 14c0 7.734-6.266 14-14 14s-14-6.266-14-14 6.266-14 14-14 14 6.266 14 14z"></path>
</symbol>
<symbol id="icon-search" viewBox="0 0 24 24">
<title>search</title>
<path d="M9.516 14.016c2.484 0 4.5-2.016 4.5-4.5s-2.016-4.5-4.5-4.5-4.5 2.016-4.5 4.5 2.016 4.5 4.5 4.5zM15.516 14.016l4.969 4.969-1.5 1.5-4.969-4.969v-0.797l-0.281-0.281c-1.125 0.984-2.625 1.547-4.219 1.547-3.609 0-6.516-2.859-6.516-6.469s2.906-6.516 6.516-6.516 6.469 2.906 6.469 6.516c0 1.594-0.563 3.094-1.547 4.219l0.281 0.281h0.797z"></path>
</symbol>
<symbol id="icon-sync" viewBox="0 0 24 24">
<title>sync</title>
<path d="M12 18v-3l3.984 3.984-3.984 4.031v-3c-4.406 0-8.016-3.609-8.016-8.016 0-1.547 0.469-3.047 1.266-4.266l1.453 1.453c-0.469 0.844-0.703 1.781-0.703 2.813 0 3.328 2.672 6 6 6zM12 3.984c4.406 0 8.016 3.609 8.016 8.016 0 1.547-0.469 3.047-1.266 4.266l-1.453-1.453c0.469-0.844 0.703-1.781 0.703-2.813 0-3.328-2.672-6-6-6v3l-3.984-3.984 3.984-4.031v3z"></path>
</symbol>
<symbol id="icon-cloud_download" viewBox="0 0 24 24">
<title>cloud_download</title>
<path d="M17.016 12.984h-3v-3.984h-4.031v3.984h-3l5.016 5.016zM19.359 10.031c2.578 0.188 4.641 2.344 4.641 4.969 0 2.766-2.25 5.016-5.016 5.016h-12.984c-3.328 0-6-2.672-6-6 0-3.094 2.344-5.625 5.344-5.953 1.266-2.391 3.75-4.078 6.656-4.078 3.656 0 6.656 2.578 7.359 6.047z"></path>
</symbol>
<symbol id="icon-play_circle_outline" viewBox="0 0 24 24">
<title>play_circle_outline</title>
<path d="M12 20.016c4.406 0 8.016-3.609 8.016-8.016s-3.609-8.016-8.016-8.016-8.016 3.609-8.016 8.016 3.609 8.016 8.016 8.016zM12 2.016c5.531 0 9.984 4.453 9.984 9.984s-4.453 9.984-9.984 9.984-9.984-4.453-9.984-9.984 4.453-9.984 9.984-9.984zM9.984 16.5v-9l6 4.5z"></path>
</symbol>
<symbol id="icon-home" viewBox="0 0 24 24">
<title>home</title>
<path d="M9.984 20.016h-4.969v-8.016h-3l9.984-9 9.984 9h-3v8.016h-4.969v-6h-4.031v6z"></path>
</symbol>
<symbol id="icon-zoom_in" viewBox="0 0 24 24">
<title>zoom_in</title>
<path d="M12 9.984h-2.016v2.016h-0.984v-2.016h-2.016v-0.984h2.016v-2.016h0.984v2.016h2.016v0.984zM9.516 14.016c2.484 0 4.5-2.016 4.5-4.5s-2.016-4.5-4.5-4.5-4.5 2.016-4.5 4.5 2.016 4.5 4.5 4.5zM15.516 14.016l4.969 4.969-1.5 1.5-4.969-4.969v-0.797l-0.281-0.281c-1.125 0.984-2.625 1.547-4.219 1.547-3.609 0-6.516-2.859-6.516-6.469s2.906-6.516 6.516-6.516 6.469 2.906 6.469 6.516c0 1.594-0.563 3.094-1.547 4.219l0.281 0.281h0.797z"></path>
</symbol>
<symbol id="icon-shopping_cart" viewBox="0 0 24 24">
<title>shopping_cart</title>
<path d="M17.016 18c1.078 0 1.969 0.938 1.969 2.016s-0.891 1.969-1.969 1.969-2.016-0.891-2.016-1.969 0.938-2.016 2.016-2.016zM0.984 2.016h3.281l0.938 1.969h14.813c0.563 0 0.984 0.469 0.984 1.031 0 0.188-0.047 0.328-0.141 0.469l-3.563 6.469c-0.328 0.609-0.984 1.031-1.734 1.031h-7.453l-0.891 1.641-0.047 0.141c0 0.141 0.094 0.234 0.234 0.234h11.578v2.016h-12c-1.078 0-1.969-0.938-1.969-2.016 0-0.328 0.094-0.656 0.234-0.938l1.359-2.484-3.609-7.594h-2.016v-1.969zM6.984 18c1.078 0 2.016 0.938 2.016 2.016s-0.938 1.969-2.016 1.969-1.969-0.891-1.969-1.969 0.891-2.016 1.969-2.016z"></path>
</symbol>
<symbol id="icon-check" viewBox="0 0 24 24">
<title>check</title>
<path d="M9 16.172l10.594-10.594 1.406 1.406-12 12-5.578-5.578 1.406-1.406z"></path>
</symbol>
<symbol id="icon-thumb_up" viewBox="0 0 24 24">
<title>thumb_up</title>
<path d="M23.016 9.984l-0.047 0.094h0.047v1.922c0 0.281-0.047 0.516-0.141 0.75l-3.047 7.031c-0.281 0.703-0.984 1.219-1.828 1.219h-9c-1.078 0-2.016-0.938-2.016-2.016v-9.984c0-0.563 0.234-1.031 0.609-1.406l6.563-6.609 1.078 1.078c0.281 0.281 0.422 0.609 0.422 1.031v0.328l-0.984 4.594h6.328c1.078 0 2.016 0.891 2.016 1.969zM0.984 21v-12h4.031v12h-4.031z"></path>
</symbol>
<symbol id="icon-add" viewBox="0 0 24 24">
<title>add</title>
<path d="M18.984 12.984h-6v6h-1.969v-6h-6v-1.969h6v-6h1.969v6h6v1.969z"></path>
</symbol>
<symbol id="icon-close" viewBox="0 0 24 24">
<title>close</title>
<path d="M18.984 6.422l-5.578 5.578 5.578 5.578-1.406 1.406-5.578-5.578-5.578 5.578-1.406-1.406 5.578-5.578-5.578-5.578 1.406-1.406 5.578 5.578 5.578-5.578z"></path>
</symbol>
<symbol id="icon-favorite" viewBox="0 0 24 24">
<title>favorite</title>
<path d="M12 21.328l-1.453-1.313c-5.156-4.688-8.531-7.734-8.531-11.531 0-3.094 2.391-5.484 5.484-5.484 1.734 0 3.422 0.844 4.5 2.109 1.078-1.266 2.766-2.109 4.5-2.109 3.094 0 5.484 2.391 5.484 5.484 0 3.797-3.375 6.891-8.531 11.578z"></path>
</symbol>
<symbol id="icon-favorite_border" viewBox="0 0 24 24">
<title>favorite_border</title>
<path d="M12.094 18.563c4.781-4.313 7.922-7.172 7.922-10.078 0-2.016-1.5-3.469-3.516-3.469-1.547 0-3.047 0.984-3.563 2.344h-1.875c-0.516-1.359-2.016-2.344-3.563-2.344-2.016 0-3.516 1.453-3.516 3.469 0 2.906 3.141 5.766 7.922 10.078l0.094 0.094zM16.5 3c3.094 0 5.484 2.391 5.484 5.484 0 3.797-3.375 6.844-8.531 11.531l-1.453 1.313-1.453-1.266c-5.156-4.688-8.531-7.781-8.531-11.578 0-3.094 2.391-5.484 5.484-5.484 1.734 0 3.422 0.844 4.5 2.109 1.078-1.266 2.766-2.109 4.5-2.109z"></path>
</symbol>
<symbol id="icon-star" viewBox="0 0 24 24">
<title>star</title>
<path d="M12 17.25l-6.188 3.75 1.641-7.031-5.438-4.734 7.172-0.609 2.813-6.609 2.813 6.609 7.172 0.609-5.438 4.734 1.641 7.031z"></path>
</symbol>
<symbol id="icon-star_border" viewBox="0 0 24 24">
<title>star_border</title>
<path d="M12 15.422l3.75 2.25-0.984-4.266 3.328-2.906-4.406-0.375-1.688-4.031-1.688 4.031-4.406 0.375 3.328 2.906-0.984 4.266zM21.984 9.234l-5.438 4.734 1.641 7.031-6.188-3.75-6.188 3.75 1.641-7.031-5.438-4.734 7.172-0.609 2.813-6.609 2.813 6.609z"></path>
</symbol>
<symbol id="icon-keyboard_arrow_down" viewBox="0 0 24 24">
<title>keyboard_arrow_down</title>
<path d="M7.406 7.828l4.594 4.594 4.594-4.594 1.406 1.406-6 6-6-6z"></path>
</symbol>
<symbol id="icon-mail_outline" viewBox="0 0 24 24">
<title>mail_outline</title>
<path d="M12 11.016l8.016-5.016h-16.031zM20.016 18v-9.984l-8.016 4.969-8.016-4.969v9.984h16.031zM20.016 3.984c1.078 0 1.969 0.938 1.969 2.016v12c0 1.078-0.891 2.016-1.969 2.016h-16.031c-1.078 0-1.969-0.938-1.969-2.016v-12c0-1.078 0.891-2.016 1.969-2.016h16.031z"></path>
</symbol>
<symbol id="icon-arrow_back" viewBox="0 0 24 24">
<title>arrow_back</title>
<path d="M20.016 11.016v1.969h-12.188l5.578 5.625-1.406 1.406-8.016-8.016 8.016-8.016 1.406 1.406-5.578 5.625h12.188z"></path>
</symbol>
<symbol id="icon-arrow_forward" viewBox="0 0 24 24">
<title>arrow_forward</title>
<path d="M12 3.984l8.016 8.016-8.016 8.016-1.406-1.406 5.578-5.625h-12.188v-1.969h12.188l-5.578-5.625z"></path>
</symbol>
<symbol id="icon-menu" viewBox="0 0 24 24">
<title>menu</title>
<path d="M3 6h18v2.016h-18v-2.016zM3 12.984v-1.969h18v1.969h-18zM3 18v-2.016h18v2.016h-18z"></path>
</symbol>
<symbol id="icon-schedule" viewBox="0 0 24 24">
<title>schedule</title>
<path d="M12.516 6.984v5.25l4.5 2.672-0.75 1.266-5.25-3.188v-6h1.5zM12 20.016c4.406 0 8.016-3.609 8.016-8.016s-3.609-8.016-8.016-8.016-8.016 3.609-8.016 8.016 3.609 8.016 8.016 8.016zM12 2.016c5.531 0 9.984 4.453 9.984 9.984s-4.453 9.984-9.984 9.984-9.984-4.453-9.984-9.984 4.453-9.984 9.984-9.984z"></path>
</symbol>
<symbol id="icon-phone" viewBox="0 0 24 24">
<title>phone</title>
<path d="M6.609 10.781c1.453 2.813 3.797 5.156 6.609 6.609l2.203-2.203c0.281-0.281 0.703-0.375 1.031-0.234 1.125 0.375 2.344 0.563 3.563 0.563 0.563 0 0.984 0.422 0.984 0.984v3.516c0 0.563-0.422 0.984-0.984 0.984-9.375 0-17.016-7.641-17.016-17.016 0-0.563 0.422-0.984 0.984-0.984h3.516c0.563 0 0.984 0.422 0.984 0.984 0 1.266 0.188 2.438 0.563 3.563 0.094 0.328 0.047 0.75-0.234 1.031z"></path>
</symbol>
<symbol id="icon-phone_iphone" viewBox="0 0 24 24">
<title>phone_iphone</title>
<path d="M15.984 18v-14.016h-9v14.016h9zM11.484 21.984c0.844 0 1.5-0.656 1.5-1.5s-0.656-1.5-1.5-1.5-1.5 0.656-1.5 1.5 0.656 1.5 1.5 1.5zM15.516 0.984c1.359 0 2.484 1.172 2.484 2.531v16.969c0 1.359-1.125 2.531-2.484 2.531h-8.016c-1.359 0-2.484-1.172-2.484-2.531v-16.969c0-1.359 1.125-2.531 2.484-2.531h8.016z"></path>
</symbol>
<symbol id="icon-visibility" viewBox="0 0 24 24">
<title>visibility</title>
<path d="M12 9c1.641 0 3 1.359 3 3s-1.359 3-3 3-3-1.359-3-3 1.359-3 3-3zM12 17.016c2.766 0 5.016-2.25 5.016-5.016s-2.25-5.016-5.016-5.016-5.016 2.25-5.016 5.016 2.25 5.016 5.016 5.016zM12 4.5c5.016 0 9.281 3.094 11.016 7.5-1.734 4.406-6 7.5-11.016 7.5s-9.281-3.094-11.016-7.5c1.734-4.406 6-7.5 11.016-7.5z"></path>
</symbol>
<symbol id="icon-navigate_next" viewBox="0 0 24 24">
<title>navigate_next</title>
<path d="M9.984 6l6 6-6 6-1.406-1.406 4.594-4.594-4.594-4.594z"></path>
</symbol>
<symbol id="icon-navigate_before" viewBox="0 0 24 24">
<title>navigate_before</title>
<path d="M15.422 7.406l-4.594 4.594 4.594 4.594-1.406 1.406-6-6 6-6z"></path>
</symbol>
<symbol id="icon-account_balance_wallet" viewBox="0 0 24 24">
<title>account_balance_wallet</title>
<path d="M15.984 13.5c0.844 0 1.5-0.656 1.5-1.5s-0.656-1.5-1.5-1.5-1.5 0.656-1.5 1.5 0.656 1.5 1.5 1.5zM12 15.984v-7.969h9.984v7.969h-9.984zM21 18v0.984c0 1.078-0.938 2.016-2.016 2.016h-13.969c-1.125 0-2.016-0.938-2.016-2.016v-13.969c0-1.078 0.891-2.016 2.016-2.016h13.969c1.078 0 2.016 0.938 2.016 2.016v0.984h-9c-1.125 0-2.016 0.938-2.016 2.016v7.969c0 1.078 0.891 2.016 2.016 2.016h9z"></path>
</symbol>
<symbol id="icon-send" viewBox="0 0 24 24">
<title>send</title>
<path d="M2.016 21v-6.984l15-2.016-15-2.016v-6.984l21 9z"></path>
</symbol>
</defs>
</svg>
